<svg width="13" height="20" viewBox="0 0 13 20" fill="none" xmlns="http://www.w3.org/2000/svg">
<path fill-rule="evenodd" clip-rule="evenodd" d="M6.71924 0.638428C6.8981 0.638428 7.06963 0.709479 7.19611 0.835952C7.32258 0.962425 7.39363 1.13396 7.39363 1.31282V17.219L11.6369 12.9744C11.7635 12.8478 11.9353 12.7766 12.1144 12.7766C12.2935 12.7766 12.4652 12.8478 12.5918 12.9744C12.7185 13.101 12.7896 13.2728 12.7896 13.4519C12.7896 13.631 12.7185 13.8027 12.5918 13.9293L7.19671 19.3245C7.13406 19.3873 7.05964 19.4371 6.97771 19.4711C6.89578 19.5051 6.80795 19.5226 6.71924 19.5226C6.63053 19.5226 6.5427 19.5051 6.46077 19.4711C6.37884 19.4371 6.30442 19.3873 6.24177 19.3245L0.846639 13.9293C0.720006 13.8027 0.648865 13.631 0.648865 13.4519C0.648865 13.2728 0.720006 13.101 0.846639 12.9744C0.973272 12.8478 1.14502 12.7766 1.32411 12.7766C1.50319 12.7766 1.67494 12.8478 1.80158 12.9744L6.04485 17.219V1.31282C6.04485 1.13396 6.1159 0.962425 6.24237 0.835952C6.36885 0.709479 6.54038 0.638428 6.71924 0.638428Z" fill="#142638"/>
</svg>
