<svg width="32" height="33" viewBox="0 0 32 33" fill="none" xmlns="http://www.w3.org/2000/svg">
<path d="M16 0.963074C7.16 0.963074 0 8.12307 0 16.9631C0 24.0431 4.58 30.0231 10.94 32.1431C11.74 32.2831 12.04 31.8031 12.04 31.3831C12.04 31.0031 12.02 29.7431 12.02 28.4031C8 29.1431 6.96 27.4231 6.64 26.5231C6.46 26.0631 5.68 24.6431 5 24.2631C4.44 23.9631 3.64 23.2231 4.98 23.2031C6.24 23.1831 7.14 24.3631 7.44 24.8431C8.88 27.2631 11.18 26.5831 12.1 26.1631C12.24 25.1231 12.66 24.4231 13.12 24.0231C9.56 23.6231 5.84 22.2431 5.84 16.1231C5.84 14.3831 6.46 12.9431 7.48 11.8231C7.32 11.4231 6.76 9.78307 7.64 7.58307C7.64 7.58307 8.98 7.16307 12.04 9.22307C13.32 8.86307 14.68 8.68307 16.04 8.68307C17.4 8.68307 18.76 8.86307 20.04 9.22307C23.1 7.14307 24.44 7.58307 24.44 7.58307C25.32 9.78307 24.76 11.4231 24.6 11.8231C25.62 12.9431 26.24 14.3631 26.24 16.1231C26.24 22.2631 22.5 23.6231 18.94 24.0231C19.52 24.5231 20.02 25.4831 20.02 26.9831C20.02 29.1231 20 30.8431 20 31.3831C20 31.8031 20.3 32.3031 21.1 32.1431C24.2765 31.0711 27.0367 29.0298 28.9921 26.3066C30.9474 23.5834 31.9994 20.3156 32 16.9631C32 8.12307 24.84 0.963074 16 0.963074Z" fill="#FAFAFA"/>
</svg>
