<svg width="32" height="33" viewBox="0 0 32 33" fill="none" xmlns="http://www.w3.org/2000/svg">
<path d="M0 2.86036C0 1.59436 1.052 0.568359 2.35 0.568359H29.65C30.948 0.568359 32 1.59436 32 2.86036V30.2764C32 31.5424 30.948 32.5684 29.65 32.5684H2.35C1.052 32.5684 0 31.5424 0 30.2764V2.86036ZM9.886 27.3564V12.9064H5.084V27.3564H9.886ZM7.486 10.9324C9.16 10.9324 10.202 9.82436 10.202 8.43636C10.172 7.01836 9.162 5.94036 7.518 5.94036C5.874 5.94036 4.8 7.02036 4.8 8.43636C4.8 9.82436 5.842 10.9324 7.454 10.9324H7.486ZM17.302 27.3564V19.2864C17.302 18.8544 17.334 18.4224 17.462 18.1144C17.808 17.2524 18.598 16.3584 19.926 16.3584C21.664 16.3584 22.358 17.6824 22.358 19.6264V27.3564H27.16V19.0684C27.16 14.6284 24.792 12.5644 21.632 12.5644C19.084 12.5644 17.942 13.9644 17.302 14.9504V15.0004H17.27C17.2806 14.9837 17.2913 14.967 17.302 14.9504V12.9064H12.502C12.562 14.2624 12.502 27.3564 12.502 27.3564H17.302Z" fill="#FAFAFA"/>
</svg>
