<svg width="500" height="500" viewBox="0 0 500 500" fill="none" xmlns="http://www.w3.org/2000/svg">
<path d="M500 310.059V336.297H0V310.059H500Z" fill="#FECB00"/>
<path d="M167.573 272.941V194.654H182.706L183.169 201.14C188.522 196.199 194.081 193.728 199.846 193.728C203.551 193.728 207.36 194.603 211.272 196.353C215.287 198.103 218.684 201.037 221.463 205.154C225.581 200.625 229.338 197.588 232.735 196.044C236.235 194.5 239.684 193.728 243.081 193.728C246.169 193.728 249.309 194.294 252.5 195.426C255.794 196.559 258.779 198.412 261.456 200.985C264.235 203.559 266.448 206.904 268.096 211.022C269.846 215.14 270.72 220.235 270.72 226.309V272.941H254.353V227.699C254.353 219.978 252.86 214.985 249.875 212.721C246.89 210.353 244.059 209.169 241.382 209.169C238.706 209.169 235.926 210.147 233.044 212.103C230.265 213.956 228.36 217.765 227.331 223.529V272.941H210.963V227.699C210.963 219.978 209.471 214.985 206.485 212.721C203.5 210.353 200.669 209.169 197.993 209.169C195.316 209.169 192.537 210.147 189.654 212.103C186.772 214.059 184.868 218.022 183.941 223.993V272.941H167.573Z" fill="#FAFAFA"/>
<path d="M283.088 163H299.301V200.059C302.596 197.691 305.684 196.044 308.566 195.118C311.551 194.191 314.691 193.728 317.985 193.728C322 193.728 326.015 194.449 330.029 195.89C334.147 197.331 337.801 199.647 340.993 202.838C344.287 205.926 346.912 210.044 348.868 215.191C350.926 220.235 351.956 226.463 351.956 233.875C351.956 241.184 350.926 247.412 348.868 252.559C346.912 257.603 344.287 261.72 340.993 264.912C337.801 268 334.147 270.265 330.029 271.706C326.015 273.147 321.949 273.868 317.831 273.868C311.243 273.868 304.912 271.603 298.838 267.073L298.529 272.941H283.088V163ZM299.301 237.426C300.64 245.662 303.059 251.221 306.559 254.103C310.162 256.985 313.919 258.426 317.831 258.426C319.684 258.426 321.64 258.118 323.699 257.5C325.86 256.779 327.765 255.544 329.412 253.794C331.162 251.941 332.603 249.419 333.735 246.228C334.868 242.934 335.434 238.765 335.434 233.721C335.434 228.676 334.868 224.559 333.735 221.368C332.603 218.176 331.162 215.706 329.412 213.956C327.765 212.103 325.86 210.868 323.699 210.25C321.64 209.529 319.632 209.169 317.676 209.169C313.765 209.169 310.007 210.456 306.404 213.029C302.801 215.5 300.434 220.132 299.301 226.926V237.426Z" fill="#FAFAFA"/>
<path d="M363.971 194.654H379.412L379.721 200.368C386 195.941 392.485 193.728 399.176 193.728C403.088 193.728 407 194.449 410.912 195.89C414.926 197.331 418.529 199.647 421.721 202.838C425.015 205.926 427.691 210.044 429.75 215.191C431.809 220.235 432.838 226.463 432.838 233.875C432.838 241.184 431.809 247.412 429.75 252.559C427.794 257.603 425.169 261.72 421.875 264.912C418.684 268 415.029 270.265 410.912 271.706C406.897 273.147 402.882 273.868 398.868 273.868C392.382 273.868 386.154 271.809 380.184 267.691V303.515H363.971V194.654ZM380.184 237.426C381.522 245.662 383.941 251.221 387.441 254.103C391.044 256.985 394.801 258.426 398.713 258.426C400.566 258.426 402.522 258.118 404.581 257.5C406.743 256.779 408.647 255.544 410.294 253.794C412.044 251.941 413.485 249.419 414.618 246.228C415.75 242.934 416.316 238.765 416.316 233.721C416.316 228.676 415.75 224.559 414.618 221.368C413.485 218.176 412.044 215.706 410.294 213.956C408.647 212.103 406.743 210.868 404.581 210.25C402.522 209.529 400.515 209.169 398.559 209.169C394.647 209.169 390.89 210.456 387.287 213.029C383.684 215.5 381.316 220.132 380.184 226.926V237.426Z" fill="#FAFAFA"/>
<path d="M69.8529 273.294L105.985 163.353H123.125L159.257 273.294H142.118L133.007 245.809H96.1029L87.1471 273.294H69.8529ZM128.066 229.904L114.632 189.14L101.044 229.904H128.066Z" fill="#FAFAFA"/>
</svg>
