<svg width="32" height="25" viewBox="0 0 32 25" fill="none" xmlns="http://www.w3.org/2000/svg">
<path d="M0 4.56836C0 3.50749 0.421427 2.49008 1.17157 1.73993C1.92172 0.989787 2.93913 0.568359 4 0.568359H28C29.0609 0.568359 30.0783 0.989787 30.8284 1.73993C31.5786 2.49008 32 3.50749 32 4.56836V20.5684C32 21.6292 31.5786 22.6466 30.8284 23.3968C30.0783 24.1469 29.0609 24.5684 28 24.5684H4C2.93913 24.5684 1.92172 24.1469 1.17157 23.3968C0.421427 22.6466 0 21.6292 0 20.5684V4.56836ZM4 2.56836C3.46957 2.56836 2.96086 2.77907 2.58579 3.15415C2.21071 3.52922 2 4.03793 2 4.56836V5.00236L16 13.4024L30 5.00236V4.56836C30 4.03793 29.7893 3.52922 29.4142 3.15415C29.0391 2.77907 28.5304 2.56836 28 2.56836H4ZM30 7.33436L20.584 12.9844L30 18.7784V7.33436ZM29.932 21.0864L18.652 14.1444L16 15.7344L13.348 14.1444L2.068 21.0844C2.18165 21.51 2.43263 21.8861 2.78198 22.1545C3.13133 22.4228 3.55949 22.5683 4 22.5684H28C28.4402 22.5684 28.8682 22.4232 29.2175 22.1553C29.5668 21.8873 29.818 21.5116 29.932 21.0864ZM2 18.7784L11.416 12.9844L2 7.33436V18.7784Z" fill="#FAFAFA"/>
</svg>
